<?xml version="1.0" encoding="utf-8"?>
<!-- Generator: Adobe Illustrator 21.0.2, SVG Export Plug-In . SVG Version: 6.00 Build 0)  -->
<svg version="1.1" id="Layer_1" xmlns="http://www.w3.org/2000/svg" xmlns:xlink="http://www.w3.org/1999/xlink" x="0px" y="0px"
	 viewBox="0 0 30 30" style="enable-background:new 0 0 30 30;" xml:space="preserve">
<style type="text/css">
	.st0 { fill: none; stroke: #fff; stroke-miterlimit: 10; }
</style>
<path class="st0" d="M27.1,5.3H2.8C1.9,5.3,1.2,6.1,1.2,7v14c0,0.9,0.8,1.7,1.7,1.7h6.6c0.7,0,1.3-0.4,1.6-1.1L13,17
	c0.3-0.8,1.1-1.3,2-1.3c0.9,0,1.7,0.6,2,1.3l1.9,4.7c0.3,0.6,0.9,1.1,1.5,1.1h6.6c1,0,1.7-0.8,1.7-1.7V7C28.8,6.1,28.1,5.3,27.1,5.3
	 M8.7,17.1c-1.7,0-3.1-1.4-3.1-3.1c0-1.7,1.4-3.1,3.1-3.1c1.7,0,3.1,1.4,3.1,3.1C11.8,15.7,10.4,17.1,8.7,17.1 M21.3,17.1
	c-1.7,0-3.1-1.4-3.1-3.1c0-1.7,1.4-3.1,3.1-3.1c1.7,0,3.1,1.4,3.1,3.1C24.3,15.7,23,17.1,21.3,17.1"/>
</svg>
