<?xml version="1.0" encoding="utf-8"?>
<!-- Generator: Adobe Illustrator 19.1.0, SVG Export Plug-In . SVG Version: 6.00 Build 0)  -->
<!DOCTYPE svg PUBLIC "-//W3C//DTD SVG 1.1//EN" "http://www.w3.org/Graphics/SVG/1.1/DTD/svg11.dtd">
<svg version="1.1" id="Layer_1" xmlns="http://www.w3.org/2000/svg" xmlns:xlink="http://www.w3.org/1999/xlink" x="0px" y="0px"
	 viewBox="702.8 22.2 67.4 67.4" style="enable-background:new 702.8 22.2 67.4 67.4;" xml:space="preserve">
<style type="text/css">
	.st0{fill:#FFFFFF;}
</style>
<path class="st0" d="M731,44.1c-0.3-0.2-0.6-0.2-0.9,0c-0.3,0.2-0.5,0.5-0.5,0.8V67c0,0.3,0.2,0.6,0.5,0.8c0.1,0.1,0.3,0.1,0.5,0.1
	c0.2,0,0.3,0,0.5-0.1l18-11c0.3-0.2,0.4-0.5,0.4-0.8s-0.2-0.6-0.4-0.8L731,44.1z M731.4,65.3V46.5l15.3,9.4L731.4,65.3z M736.5,22.2
	c-18.6,0-33.7,15.1-33.7,33.7s15.1,33.7,33.7,33.7s33.7-15.1,33.7-33.7C770.2,37.3,755.1,22.2,736.5,22.2z M736.5,87.8
	c-17.6,0-31.9-14.3-31.9-31.9S718.9,24,736.5,24s31.9,14.3,31.9,31.9S754.1,87.8,736.5,87.8z"/>
</svg>
